<svg xmlns="http://www.w3.org/2000/svg" xmlns:xlink="http://www.w3.org/1999/xlink" width="102" height="32" viewBox="0 0 102 32">
    <defs>
        <path id="fz5etzx8ua" d="M0.012 0.084L34.182 0.084 34.182 37.388 0.012 37.388z"/>
    </defs>
    <g fill="none" fill-rule="evenodd">
        <path fill="#000" d="M49.688 8.677c2.155 0 3.585.982 4.55 2.275l-1.395.81c-.655-.879-1.81-1.551-3.155-1.551-2.395 0-4.187 1.827-4.187 4.412 0 2.568 1.792 4.43 4.187 4.43 1.276 0 2.362-.621 2.913-1.138v-2.069h-3.688V14.33h5.412v4.222c-1.103 1.224-2.689 2.034-4.637 2.034-3.292 0-5.963-2.378-5.963-5.963s2.671-5.946 5.963-5.946M62.129 10.211c-2.465 0-4.016 1.879-4.016 4.412 0 2.516 1.55 4.412 4.016 4.412 2.43 0 4.015-1.896 4.015-4.412 0-2.533-1.586-4.412-4.015-4.412zm0-1.534c3.43 0 5.79 2.533 5.79 5.946 0 3.412-2.36 5.946-5.79 5.946s-5.791-2.534-5.791-5.946c0-3.413 2.36-5.946 5.79-5.946zM72.874 15.364L71.788 16.588 71.788 20.362 70.065 20.362 70.065 8.866 71.788 8.866 71.788 14.571 76.597 8.866 78.734 8.866 73.994 14.312 79.113 20.362 76.976 20.362 72.874 15.364M81.229 8.866L88.95 8.866 88.95 10.383 82.952 10.383 82.952 13.744 88.829 13.744 88.829 15.261 82.952 15.261 82.952 18.845 88.95 18.845 88.95 20.362 81.229 20.362 81.229 8.866M93.231 11.538L93.231 20.362 91.508 20.362 91.508 8.866 93.283 8.866 99.539 17.484 99.539 8.866 101.263 8.866 101.263 20.362 99.591 20.362 93.231 11.538"/>
        <path fill="#000" d="M28.212 14.426H17.081l2.163 3.297 1.592 2.37h7.334c-.597 2.27-1.872 4.264-3.595 5.753l3.11 4.74c3.958-3.13 6.497-7.974 6.497-13.41 0-.937-.077-1.855-.222-2.751h-5.748v.001" mask="url(#3stzuyxseb)"/>
        <path fill="#000" d="M6.443 30.544l3.104-4.75c-2.396-2.1-3.91-5.182-3.91-8.619 0-6.326 5.128-11.454 11.454-11.454 3.826 0 7.214 1.876 9.294 4.759h6.435C30.215 4.369 24.154.084 17.091.084 7.651.084 0 7.736 0 17.175c0 5.413 2.517 10.237 6.443 13.369M17.051 22.688L14.228 27.007 19.885 27.007 17.051 22.688M26.568 37.4L7.391 37.4 11.144 31.712 22.944 31.712 26.568 37.4" mask="url(#3stzuyxseb)"/>
        <path fill="#000" d="M45.626 25.028L43.862 25.028 44.033 24.278 48.403 24.278 48.241 25.028 46.478 25.028 45.396 29.96 44.544 29.96 45.626 25.028M49.263 24.219c.256 0 .452.195.452.425 0 .35-.307.554-.554.554-.255 0-.451-.187-.451-.426 0-.35.306-.553.553-.553zm-.673 1.626h.767l-.911 4.115h-.767l.911-4.115zM54.92 27.268c.009-.042.034-.145.034-.255 0-.367-.315-.588-.673-.588-.383 0-.784.29-1.048.596l-.647 2.94h-.767l.596-2.693c.017-.102.035-.162.035-.298-.01-.298-.239-.545-.682-.545-.375 0-.767.298-1.04.596l-.638 2.94h-.767l.911-4.116h.767l-.137.58c.231-.256.691-.682 1.287-.682.75 0 1.074.537 1.074.742v.017c.323-.4.818-.759 1.431-.759.588 0 1.107.358 1.107 1.031 0 .094-.025.247-.042.34l-.631 2.846h-.767l.597-2.692M59.563 27.464c0-.605-.4-1.09-1.168-1.09-.707 0-1.286.579-1.406 1.227h2.565c.009-.026.009-.094.009-.137zm-1.108-1.72c1.082 0 1.798.732 1.798 1.814 0 .204-.043.477-.077.596h-3.263c-.009.034-.017.12-.017.17 0 .554.443 1.108 1.33 1.108.383 0 .834-.128 1.14-.375l.248.537c-.375.281-.92.469-1.44.469-1.27 0-2.045-.716-2.045-1.832 0-1.354 1.006-2.488 2.326-2.488zM62.54 29.015l.554-2.505h-.682l.153-.665h.682l.247-1.124h.767l-.247 1.124h.834l-.153.665h-.835l-.511 2.334c-.008.043-.017.103-.017.162 0 .239.137.375.41.375.136 0 .288-.06.365-.12l.06.614c-.153.12-.384.188-.63.188-.623 0-1.023-.248-1.023-.793 0-.05.009-.161.026-.255M67.072 26.425c-.878 0-1.5.869-1.5 1.763 0 .733.426 1.193 1.15 1.193.878 0 1.5-.86 1.5-1.763 0-.733-.434-1.193-1.15-1.193zm.017-.682c1.21 0 1.934.759 1.934 1.84 0 1.295-.98 2.48-2.326 2.48-1.21 0-1.925-.75-1.925-1.84 0-1.287.971-2.48 2.317-2.48zM72.398 24.278L73.25 24.278 71.998 29.96 71.146 29.96 72.398 24.278M76.217 27.32c.017-.077.042-.18.042-.273 0-.443-.349-.622-.74-.622-.512 0-.955.298-1.253.596l-.639 2.94h-.767l.912-4.116h.767l-.137.58c.35-.332.836-.682 1.431-.682.75 0 1.244.375 1.244 1.031 0 .077-.025.256-.042.34l-.63 2.846h-.767l.58-2.64M80.468 27.32c.017-.077.043-.18.043-.273 0-.443-.35-.622-.742-.622-.51 0-.954.298-1.252.596l-.639 2.94h-.767l.911-4.116h.767l-.136.58c.35-.332.835-.682 1.431-.682.75 0 1.245.375 1.245 1.031 0 .077-.026.256-.043.34l-.63 2.846h-.767l.579-2.64M83.986 26.425c-.877 0-1.5.869-1.5 1.763 0 .733.427 1.193 1.15 1.193.878 0 1.5-.86 1.5-1.763 0-.733-.434-1.193-1.15-1.193zm.018-.682c1.209 0 1.933.759 1.933 1.84 0 1.295-.98 2.48-2.326 2.48-1.21 0-1.925-.75-1.925-1.84 0-1.287.971-2.48 2.318-2.48zM86.201 25.845L86.993 25.845 87.556 29.074 89.566 25.845 90.418 25.845 87.811 29.96 86.985 29.96 86.201 25.845M91.995 29.381c.476 0 .919-.29 1.166-.639l.383-1.704c-.195-.34-.613-.613-1.166-.613-.87 0-1.457.869-1.457 1.797 0 .716.434 1.16 1.074 1.16zm1.805-3.536h.767l-.911 4.115h-.767l.127-.57c-.34.425-.784.673-1.32.673-.937 0-1.584-.614-1.584-1.696 0-1.312.809-2.624 2.163-2.624.614 0 1.116.281 1.397.725l.128-.623zM95.07 29.015l.553-2.505h-.682l.153-.665h.682l.248-1.124h.766l-.247 1.124h.835l-.153.665h-.835l-.512 2.334c-.008.043-.016.103-.016.162 0 .239.136.375.409.375.136 0 .289-.06.366-.12l.06.614c-.154.12-.384.188-.631.188-.622 0-1.022-.248-1.022-.793 0-.05.008-.161.025-.255M100.572 27.464c0-.605-.4-1.09-1.167-1.09-.707 0-1.286.579-1.405 1.227h2.564c.008-.026.008-.094.008-.137zm-1.107-1.72c1.082 0 1.798.732 1.798 1.814 0 .204-.043.477-.077.596h-3.263c-.008.034-.017.12-.017.17 0 .554.443 1.108 1.329 1.108.383 0 .835-.128 1.141-.375l.247.537c-.375.281-.92.469-1.44.469-1.268 0-2.044-.716-2.044-1.832 0-1.354 1.005-2.488 2.326-2.488z"/>
    </g>
</svg>
